<?xml version="1.0" encoding="utf-8"?>
<!-- Generator: Adobe Illustrator 27.5.0, SVG Export Plug-In . SVG Version: 6.00 Build 0)  -->
<svg version="1.1" id="Capa_1" xmlns="http://www.w3.org/2000/svg" xmlns:xlink="http://www.w3.org/1999/xlink" x="0px" y="0px"
	 viewBox="0 0 2122 2122" style="enable-background:new 0 0 2122 2122;" xml:space="preserve">
<g>
	<path style="fill:#FFFAE3;" d="M1485.74,911.536c0-2.694-0.059-5.198-0.181-7.547V483.35h-73.407
		c-10.996-86.884-183.784-155.926-395.334-155.926c-211.55,0-384.338,69.042-395.339,155.926h-73.402v420.693
		c-0.122,2.329-0.181,4.818-0.181,7.493c0,123.246-71.551,123.246-71.551,123.246s71.551,3.125,71.551,123.251
		c0,2.641,0.059,5.096,0.181,7.391v420.742h72.847c0,90.976,177.251,164.724,395.895,164.724
		c218.648,0,395.894-73.748,395.894-164.724h72.847v-420.791c0.122-2.28,0.181-4.721,0.181-7.342
		c0-120.125,71.561-123.251,71.561-123.251S1485.74,1034.782,1485.74,911.536z"/>
	<g>
		<g>
			<path style="fill:#4B3527;" d="M1016.814,369.499c97.344,0,188.873,15.016,257.727,42.282
				c67.607,26.77,85.12,54.039,86.165,62.285c4.066,32.134,31.398,56.226,63.787,56.226h11.41v369.483
				c0,1.035,0.025,2.07,0.075,3.106c0.066,1.374,0.1,2.948,0.1,4.67c0,57.308,12.94,98.649,31.617,127.909
				c-18.643,29.213-31.617,70.119-31.617,126.286c0,1.625-0.034,3.103-0.098,4.397c-0.051,1.06-0.078,2.119-0.078,3.182v369.616
				h-10.826c-35.51,0-64.297,28.787-64.297,64.297c0,8.967-19.55,35.612-79.98,60.757c-68.457,28.484-164.676,44.82-263.987,44.82
				c-99.305,0-195.521-16.336-263.978-44.82c-60.428-25.145-79.98-51.793-79.98-60.757c0-35.51-28.786-64.297-64.297-64.297h-10.821
				v-369.575c0-1.147-0.029-2.297-0.093-3.442c-0.061-1.152-0.092-2.558-0.092-4.178c0-56.167-12.974-97.073-31.617-126.286
				c18.677-29.26,31.617-70.601,31.617-127.909c0-1.586,0.036-3.091,0.109-4.602c0.051-1.042,0.076-2.082,0.076-3.125V530.292h11.4
				c32.387,0,59.72-24.087,63.788-56.218c1.045-8.248,18.563-35.52,86.17-62.292C827.951,384.515,919.477,369.499,1016.814,369.499
				 M1016.814,305.203c-218.152,0-396.328,71.196-407.675,160.793h-75.697v433.828c-0.117,2.407-0.185,4.969-0.185,7.727
				c0,127.098-73.788,127.098-73.788,127.098s73.788,3.22,73.788,127.098c0,2.721,0.058,5.257,0.185,7.62v433.872h75.117
				c0,93.821,182.785,169.874,408.255,169.874c225.484,0,408.264-76.053,408.264-169.874h75.122v-433.913
				c0.117-2.356,0.176-4.874,0.176-7.578c0-123.877,73.792-127.098,73.792-127.098s-73.792,0-73.792-127.098
				c0-2.775-0.059-5.362-0.176-7.776V465.995h-75.707C1413.156,376.398,1234.98,305.203,1016.814,305.203L1016.814,305.203z"/>
		</g>
	</g>
	<g>
		<path style="fill:#3A2720;" d="M756.914,625.67c0,0-53.388,426.666,100.827,530.056
			c154.181,103.427,495.201,230.95,495.201,230.95s251.666,76.136,288.29,159.244c0,0,20.185-238.483-72.613-321.12
			c-92.784-82.579-489-703.774-626.747-703.774C804.119,521.025,756.914,625.67,756.914,625.67z"/>
		<g>
			<path style="fill:#EFA88B;" d="M1145.529,1064.886c-60.034-21.435-50.051-153.762-50.051-153.762l-139.473,22.75
				c0,0,9.983,109.577-50.075,131.012c-5.788,2.058-74.494,97.726,50.075,97.726
				C1080.57,1162.613,1149.909,1066.443,1145.529,1064.886z"/>
			<path style="fill:#DB9A80;" d="M1060.506,1035.547c43.863,41.929,76.243,25.32,76.243,25.32l0.039-0.061
				c-50.25-28.48-41.271-149.682-41.271-149.682l-139.512,22.75c0,0,1.608,28.492-1.077,46.971
				C954.929,980.846,1016.638,993.644,1060.506,1035.547z"/>
		</g>
		<path style="fill:#EFA88B;" d="M1167.171,617.943c-30.475-105.719-163.872-105.719-163.872-105.719
			s-141.358-2.003-163.842,105.719c-47.259,226.592,44.077,339.468,114.162,339.468c78.762,0,144.13-40.942,180.724-72.35
			c32.263-27.739,10.913,3.398,22.334-23.262C1168.106,835.144,1197.621,723.672,1167.171,617.943z"/>
		<path style="fill:#D7B9AA;" d="M818.375,1658.474h386.311c2.339-31.503,41.305-565.586-6.012-580.374
			c-15.308-4.797-36.565-7.33-52.969-13.213c0,0-85.475,68.689-175.535,68.689c-90.148,0-64.058-68.689-64.058-68.689
			s-39.396,4.085-53.524,22.787C798.692,1158.859,825.03,1366.499,818.375,1658.474z"/>
		<g>
			<g>
				<path style="fill:#E09E83;" d="M1235.496,1575.863c48.759-62.537,32.657-214.692,32.151-303.261l-100.057,52.043l0.36,185.794
					C1167.95,1510.439,1195.297,1627.434,1235.496,1575.863z"/>
			</g>
			<g>
				<path style="fill:#E1C2B2;" d="M1152.686,1376.859l156.802-20.163c-14.49-30.981-15.771-67.476-17.388-83.855
					c-13.505-136.469-37.486-203.984-113.621-192.563c-76.165,11.357-33.578,232.948-33.578,232.948L1152.686,1376.859z"/>
			</g>
		</g>
		<g>
			<path style="fill:#E09E83;" d="M651.37,1538.792c40.497-6.173,151.886-146.157,168.193-249.313h-89.939
				c0,0-69.631,128.978-103.092,170.97C612.866,1477.628,610.898,1544.938,651.37,1538.792z"/>
			<g>
				<path style="fill:#D7B9AA;" d="M681.036,1343.819l157.231,52.401c0,0,19.089-82.969,23.561-95.67
					c45.505-129.348,30.743-207.501-7.581-216.275c-90.864-20.692-142.191,185.223-142.191,185.223
					S699.087,1321.357,681.036,1343.819z"/>
			</g>
		</g>
		<g>
			<g>
				<path style="fill:#543E36;" d="M1449.862,711.766c-185.855-94.296-235.657-276.034-407.709-318.474
					c-172.032-42.499-218.176,91.741-218.176,91.741s-66.503,16.131-67.063,126.766c-0.687,130.535,17.651,162.23,10.704,243.623
					c-10.977,128.566,25.793,218.088,89.285,280.533c81.096,79.834,153.524,87.888,158.362,179.655
					c5.569,106.576,53.169,169.121,116.93,183.167c0,0-61.792-38.411-66.445-124.091c-5.847-108.944-42.402-183.467-123.877-247.739
					c-44.443-35.067-73.783-71.067-93.592-110.221c33.471,46.104,53.184,55.288,88.73,62.307c0,0-69.305-49.661-65.49-113.451
					c3.82-63.819-43.186-94.837-45.096-179.762c-1.812-81.295,23.03-84.94,42.557-159.433c0,0,0,41.125,60.813,46.883
					l-22.075-22.136c8.176,7.077,25.953,19.652,61.588,34.36c30.782,12.67,87.468,17.498,103.571,38.019
					c0,0,0.219,15.993,9.004,29.825c4.774,7.485,20.735-7.33,19.415,1.844c-19.415,134.237,0.774,285.079,283.856,410.956
					c154.444,68.708,313.273,344.302,313.273,344.302C1856.704,926.303,1609.174,792.614,1449.862,711.766z"/>
				<g>
					<path style="fill:#C2C4C6;" d="M1072.877,723.513c0,0,0-0.09-0.03-0.09c-3.035-6.495-10.587-14.938-28.891-22.275
						c-35.581-14.402-99.702-28.806-136.237-50.014c0,0,2.87,2.088,6.655,5.313c9.963,7.276,26.927,17.512,54.932,29.047
						C1000.088,698.164,1056.774,702.992,1072.877,723.513z"/>
					<path style="fill:#C2C4C6;" d="M844.172,627.458c-43.664,58.36-61.822,163.789-18.134,251.645
						c38.982,78.338,35.011,142.04,90.693,186.47c5.603,3.912,12.102,8.229,20.278,13.459c0,0-69.305-49.661-65.49-113.451
						c3.82-63.819-34.684-80.764-42.738-152.21c-11.805-104.433,21.588-116.849,40.199-186.985
						c2.597,14.935,12.945,42.526,60.813,46.883c0,0-55.746-14.889-55.746-93.112c0-37.64-38.733-75.364-47.352-90.423
						C837.819,509.725,875.992,584.874,844.172,627.458z"/>
					<path style="fill:#C2C4C6;" d="M826.696,489.734c-1.701-3.035-2.719-4.701-2.719-4.701S824.962,486.763,826.696,489.734z"/>
					<path style="fill:#C2C4C6;" d="M796.129,938.559c0,0,32.623,102.801,56.755,142.971c24.092,40.114,32.56,46.789,32.56,46.789
						s-60.745-47.116-74.138-88.387C797.917,998.653,796.129,938.559,796.129,938.559z"/>
					<path style="fill:#C2C4C6;" d="M1659.39,1046.492c0,0-37.178-80.167-140.164-109.719
						c-81.86-23.432-153.582-51.442-153.582-51.442s66.592,41.722,122.128,59.103
						C1564.049,968.271,1641.252,1034.085,1659.39,1046.492z"/>
					<path style="fill:#C2C4C6;" d="M1179.492,553.322c0,0-74.494-100.355-161.275-90.627
						c-43.541,4.945-44.409,27.223-44.409,27.223s38.567-18.163,100.559,6.348C1117.188,513.096,1144.749,526.358,1179.492,553.322z
						"/>
					<path style="fill:#C2C4C6;" d="M1540.609,837.105c0,0-78.961-58.177-124.857-72.525
						c-95.862-29.905-173.81-78.462-173.81-78.462s77.237,65.905,149.943,96.598C1464.59,813.371,1482.637,813.225,1540.609,837.105
						z"/>
				</g>
			</g>
			<g>
				<g>
					<path style="fill:#EEECEC;" d="M875.48,863.621c9.213,28.151,33.734,48.46,62.928,48.46c29.13,0,53.675-20.309,62.893-48.46
						H875.48z"/>
					<g>
						<g>
							
								<path style="fill:none;stroke:#402320;stroke-width:11.3776;stroke-linecap:round;stroke-linejoin:round;stroke-miterlimit:10;" d="
								M871.246,724.385c0.989,0.417-20.457-8.889-33.578,11.057"/>
							<g>
								<g>
									<path style="fill:#1E0D0A;" d="M863.173,748.56c-7.586,0-13.759,6.175-13.759,13.781c0,7.601,6.173,13.747,13.759,13.747
										c7.576,0,13.778-6.146,13.778-13.747C876.951,754.736,870.749,748.56,863.173,748.56z"/>
									<path style="fill:#1E0D0A;" d="M1015.05,748.56c-7.571,0-13.749,6.175-13.749,13.781c0,7.601,6.178,13.747,13.749,13.747
										c7.586,0,13.759-6.146,13.759-13.747C1028.809,754.736,1022.636,748.56,1015.05,748.56z"/>
								</g>
								
									<path style="fill:none;stroke:#402320;stroke-width:11.3776;stroke-linecap:round;stroke-linejoin:round;stroke-miterlimit:10;" d="
									M1007.002,724.385c0,0,20.638-8.657,33.549,11.057"/>
							</g>
						</g>
						
							<path style="fill:none;stroke:#D5D7D8;stroke-width:8.1319;stroke-linecap:round;stroke-linejoin:round;stroke-miterlimit:10;" d="
							M914.247,828.34c0,0,2.816,5.606,16.887,5.606c14.051,0,16.039-5.606,16.039-5.606"/>
					</g>
				</g>
				<path style="fill:#EFA88B;" d="M1091.547,785.659c3.372,3.673,7.746,6.446,12.911,7.903
					c14.816,4.246,30.396-4.315,34.655-19.265c4.243-14.874-4.414-30.377-19.264-34.677c-6.353-1.815-29.637-5.961-35.191,19.116"/>
			</g>
		</g>
		<g>
			<g>
				<path style="fill:#EFA88B;" d="M502.139,1151.436c0,0,43.483-10.945,44.945,12.587c4.292,69.451-5.515,108.579-5.515,108.579
					l104.316,141.651c0,0,64.75,78.942,21.622,116.461c-43.093,37.544-120.837-53.914-178.581-263.571
					C488.926,1267.143,447.211,1181.317,502.139,1151.436z"/>
				<g>
					<g>
						<path style="fill:#AC8426;" d="M595.01,1098.109c-89.324-66.623-222.95-45.683-222.95-45.683l225.898,259.069
							c0,0,96.896-13.905,225.908,69.478L595.01,1098.109z"/>
						<path style="fill:#C8992E;" d="M661.777,1100.231c0,0,140.111-80.672,310.277-18.285l219.759,319.58
							c0,0-271.505-98.535-304.133-20.553L661.777,1100.231z"/>
						<path style="fill:#8B6B1A;" d="M595.01,1098.109l2.948-8.848c-89.314-66.66-225.898-47.812-225.898-47.812v10.977
							C372.06,1052.426,505.686,1031.486,595.01,1098.109z"/>
						<g>
							<polygon style="fill:#BA8F2A;" points="972.054,1070.971 972.054,1081.946 1191.813,1401.527 1191.813,1390.547 							"/>
						</g>
						<g>
							<path style="fill:#A47E23;" d="M972.054,1070.971c-170.167-62.416-310.219,18.548-310.219,18.548l-0.058,10.711
								c0,0,140.111-80.672,310.277-18.285V1070.971z"/>
						</g>
						<path style="fill:#BA8F2A;" d="M595.01,1098.109c0,0,44.316,26.636,66.767,2.122l225.903,280.743c0,0-17.057,21.537-63.814,0
							L595.01,1098.109z"/>
						<path style="fill:#A47E23;" d="M595.01,1098.109c0,0,44.282,26.606,66.733,2.153l0.092-10.743
							c-22.64,24.336-63.878-0.258-63.878-0.258l-2.948,8.616V1098.109z"/>
					</g>
					<path style="fill:#BCBDB6;" d="M597.958,1089.262c0,0,20.628,12.048,40.765,10.609
						c-31.069-28.124-107.862-78.343-256.558-71.337l0.297,11.844C415.63,1037.576,523.191,1033.486,597.958,1089.262z"/>
					<path style="fill:#BCBDB6;" d="M597.958,1089.262c0,0,20.628,12.048,40.765,10.609
						c-31.069-28.124-107.862-78.343-256.558-71.337l0.297,11.844C415.63,1037.576,523.191,1033.486,597.958,1089.262z"/>
					<path style="fill:#BCBDB6;" d="M661.835,1089.52c0,0,136.535-78.611,303.681-20.635l-8.94-18.404
						c-154.815-48.041-262.376,0.071-308.85,47.547C652.803,1096.411,657.66,1093.995,661.835,1089.52z"/>
					<path style="fill:#C7C8C0;" d="M647.76,1098.026c45.311-46.287,148.725-92.874,297.269-50.76l-11.571-17.449
						c-160.953-37.812-248.241,16.256-289.595,69.429C645.197,1098.979,646.454,1098.438,647.76,1098.026z"/>
					<path style="fill:#D3D4CB;" d="M643.97,1099.22c-0.029,0-0.088,0-0.107,0.026c40.55-52.097,125.368-104.856,280.202-71.332
						l-12.234-16.29c-160.461-33.934-234.366,28.694-269.62,88.126C642.81,1099.663,643.38,1099.337,643.97,1099.22z"/>
					<path style="fill:#C7C8C0;" d="M638.722,1099.87c0.331-0.031,0.663,0,0.989-0.031c-23.464-31.81-86.542-87.4-241.381-85.615
						v13.922C536.346,1025.403,608.818,1072.825,638.722,1099.87z"/>
					<path style="fill:#D3D4CB;" d="M639.711,1099.839c-0.273,0-0.546,0-0.799,0c0.886-0.029,1.754,0.068,2.616-0.088
						c-21.797-35.698-82.489-102.703-230.556-99.041v13.629C556.419,1015.718,616.89,1068.911,639.711,1099.839z"/>
				</g>
				<path style="fill:#EFA88B;" d="M1208.719,1466.659c-99.371-60.066-164.593-109.809-187.857-140.016
					c-26.626-34.535-25.373-31.912-49.832-51.685c-24.482-19.771-40.053-10.019-32.652-0.57
					c9.032,11.518,17.062,16.794,19.205,20.962c-14.1-9.861-40.798-22.748-55.887-25.764c-27.347-5.488-54.699,13.062-40.219,37.695
					c48.779,83.327,110.006,61.831,121.242,70.474c107.424,175.027,207.633,235.389,244.787,207.443
					C1258.79,1561.73,1246.833,1489.682,1208.719,1466.659z"/>
				<path style="fill:#EFA88B;" d="M541.568,1272.602c0.473-17.147,24.926-60.718,18.251-97.699
					c-4.716-26.333-57.68-64.292-74.796,7.069"/>
			</g>
		</g>
	</g>
	<g>
		<path style="fill:#95211D;" d="M1614.236,1367.868l-46.231,89.565c35.123,27.893,46.231,58.036,46.231,58.036
			c-40.682-5.233-87.507,67.916-140.729,67.916v-149.772C1524.113,1433.614,1571.615,1361.417,1614.236,1367.868z"/>
		<path style="fill:#3F0000;" d="M1473.506,1433.614c0,0,47.352,11.854,47.352,65.863l-47.352,37.551V1433.614z"/>
		<path style="fill:#B62C29;" d="M1299.637,1719.782c91.717-45.05,167.02-67.612,221.221-78.901v-141.404
			c-41.354,5.433-124.998,20.124-221.221,57.464V1719.782z"/>
		<path style="fill:#580000;" d="M1299.637,1556.941c0,0,74.538-4.707,74.538,44.572c0,0-35.815,44.789-74.538,29.342V1556.941z"/>
		<path style="fill:#95211D;" d="M445.009,1367.868l46.226,89.565c-35.118,27.893-46.226,58.036-46.226,58.036
			c40.691-5.233,87.507,67.916,140.729,67.916v-149.772C535.133,1433.614,487.63,1361.417,445.009,1367.868z"/>
		<path style="fill:#3F0000;" d="M585.739,1433.614c0,0-47.352,11.854-47.352,65.863l47.352,37.551V1433.614z"/>
		<path style="fill:#B62C29;" d="M759.613,1719.782c-91.717-45.05-167.024-67.612-221.226-78.901v-141.404
			c41.354,5.433,125.003,20.124,221.226,57.464V1719.782z"/>
		<path style="fill:#580000;" d="M759.613,1556.941c0,0-74.543-4.707-74.543,44.572c0,0,35.815,44.789,74.543,29.342V1556.941z"/>
		<path style="fill:#B62C29;" d="M1029.623,1816.117c195.311,0,344.552-64.842,344.552-64.842v-149.763
			c0,0-111.887,64.833-344.552,64.833c-232.666,0-344.552-64.833-344.552-64.833v149.763
			C685.07,1751.275,834.311,1816.117,1029.623,1816.117z"/>
	</g>
</g>
</svg>
